<?xml version="1.0" standalone="no"?>
<!DOCTYPE svg PUBLIC "-//W3C//DTD SVG 20010904//EN"
 "http://www.w3.org/TR/2001/REC-SVG-20010904/DTD/svg10.dtd">
<svg version="1.0" xmlns="http://www.w3.org/2000/svg"
 width="1254.000000pt" height="1254.000000pt" viewBox="0 0 1254.000000 1254.000000"
 preserveAspectRatio="xMidYMid meet">

<g transform="translate(0.000000,1254.000000) scale(0.100000,-0.100000)"
fill="#000000" stroke="none">
<path d="M0 6270 l0 -6270 6270 0 6270 0 0 6270 0 6270 -6270 0 -6270 0 0
-6270z m6565 4350 c346 -25 797 -105 907 -161 63 -32 135 -111 171 -187 29
-62 32 -75 32 -167 -1 -130 -24 -192 -106 -279 -72 -77 -147 -115 -247 -123
-53 -4 -93 1 -197 25 -291 69 -520 96 -815 95 -234 0 -368 -11 -588 -49 -974
-166 -1812 -747 -2337 -1619 -242 -401 -392 -822 -472 -1325 -26 -164 -26
-680 0 -855 123 -822 475 -1519 1037 -2058 584 -560 1316 -899 2105 -977 161
-16 505 -14 680 5 222 24 490 80 715 150 14 4 22 4 18 0 -4 -4 -83 -29 -175
-56 -93 -26 -157 -49 -143 -50 17 -1 20 -3 8 -6 -24 -6 -23 -23 1 -23 11 0 22
-6 25 -12 5 -10 7 -10 12 0 3 6 12 12 20 12 8 0 14 5 14 11 0 5 5 7 11 3 8 -5
8 -9 -1 -14 -17 -11 -3 -70 17 -70 10 0 14 6 10 20 -6 22 11 31 35 19 10 -6
30 -3 52 6 45 19 46 19 41 -5 -3 -17 2 -20 35 -20 41 0 68 20 28 21 l-23 0 23
9 c12 5 22 15 22 22 0 8 6 7 17 -4 12 -12 13 -21 6 -30 -6 -7 -11 -26 -11 -42
0 -23 2 -26 10 -13 11 21 50 23 42 3 -4 -9 2 -13 20 -11 14 2 30 -3 36 -10 9
-11 7 -12 -9 -8 -15 4 -21 1 -21 -12 0 -18 23 -45 39 -45 15 0 14 -25 -2 -38
-10 -8 -20 -5 -40 14 l-28 26 7 -26 c6 -25 -2 -32 -29 -27 -5 1 -6 -3 -3 -7 3
-5 -4 -18 -15 -28 -19 -17 -21 -18 -30 -1 -6 9 -19 17 -30 17 -17 0 -20 -6
-18 -34 4 -39 -8 -58 -21 -36 -12 20 -60 23 -60 4 0 -9 -11 -14 -31 -14 -16 0
-28 4 -24 9 10 18 -16 23 -34 7 -20 -18 -41 -21 -41 -6 0 6 -5 10 -11 10 -6 0
-9 -8 -7 -18 2 -9 11 -16 20 -16 11 1 14 -5 10 -19 -3 -14 -1 -18 6 -13 7 4
12 14 12 22 0 8 5 14 10 14 13 0 13 -27 -1 -36 -7 -4 -7 -10 -1 -16 7 -7 4
-17 -9 -32 -20 -21 -20 -21 2 -38 11 -10 17 -18 13 -18 -5 0 -2 -4 6 -10 8 -5
11 -12 8 -16 -9 -9 -39 22 -30 31 4 4 -5 5 -20 1 -22 -5 -28 -3 -28 9 0 10 5
13 12 9 6 -4 8 -3 4 4 -3 6 -2 13 3 17 6 3 8 12 4 20 -3 8 0 15 7 15 10 0 9 4
-1 16 -12 14 -14 14 -21 -5 -4 -12 -5 -27 -2 -34 3 -8 -1 -14 -8 -14 -7 0 -21
-4 -30 -8 -17 -7 -20 9 -5 33 5 7 3 12 -6 12 -8 0 -17 7 -21 15 -3 8 -11 15
-18 15 -9 0 -9 -3 -2 -8 6 -4 13 -17 16 -29 6 -21 3 -22 -41 -18 -25 2 -40 1
-33 -1 6 -3 12 -10 12 -15 0 -6 -4 -8 -8 -5 -5 3 -19 -8 -31 -25 -18 -24 -20
-33 -11 -45 7 -8 8 -14 2 -14 -14 0 -33 26 -30 40 2 7 -4 15 -12 17 -13 4 -13
3 0 -6 13 -9 13 -11 0 -11 -11 0 -11 -3 -2 -12 15 -15 16 -32 2 -23 -6 3 -19
3 -31 0 -15 -5 -18 -12 -13 -27 5 -17 3 -20 -10 -15 -15 6 -15 4 0 -18 11 -17
12 -25 5 -25 -7 0 -9 -5 -6 -10 4 -6 1 -9 -6 -8 -9 2 -12 -8 -10 -34 2 -32 -2
-40 -27 -55 -40 -25 -30 -43 23 -43 53 0 75 8 75 26 0 8 9 14 21 14 11 0 17
-4 14 -10 -8 -13 28 -13 96 1 30 5 77 14 104 19 92 17 109 21 194 45 97 28
107 35 60 36 -19 1 -26 3 -16 6 9 2 17 9 17 14 0 5 9 9 21 9 18 0 20 4 14 33
-7 30 -6 31 8 12 14 -18 17 -18 34 -4 10 9 33 22 51 29 29 11 35 11 43 -1 6
-10 9 -10 9 -1 0 6 7 12 15 12 8 0 15 -4 15 -10 0 -5 7 -10 15 -10 8 0 14 -6
13 -12 -13 -62 577 195 877 382 207 129 520 361 520 385 0 6 4 15 8 21 4 7 0
15 -9 18 -9 4 -14 9 -11 13 9 8 38 -17 31 -28 -12 -21 11 -6 61 38 42 37 51
51 43 61 -6 7 -7 12 -2 11 5 -1 12 0 17 1 4 1 13 3 20 4 6 1 11 8 9 15 -1 7 1
10 6 7 11 -7 193 179 293 299 185 221 313 406 345 494 13 36 23 56 24 45 1
-60 -49 -144 -219 -369 -380 -504 -907 -939 -1472 -1215 -160 -78 -436 -189
-604 -243 -651 -209 -1406 -251 -2080 -116 -674 135 -1324 440 -1885 885 -164
130 -512 476 -630 627 -206 262 -343 475 -482 747 -500 979 -593 2146 -256
3190 82 253 229 585 363 820 118 206 315 486 468 665 95 111 333 350 447 449
738 640 1690 996 2690 1005 85 0 218 -4 295 -9z m2049 -2672 c-318 -322 -525
-557 -835 -948 -497 -626 -1047 -1434 -1505 -2209 -117 -198 -160 -250 -240
-287 -114 -54 -226 -51 -337 9 -59 31 -65 37 -972 980 -165 171 -217 232 -245
285 -34 65 -35 70 -35 182 0 110 1 118 33 182 60 122 171 205 305 228 110 20
240 -15 327 -86 20 -16 170 -167 333 -336 321 -330 331 -338 431 -338 76 0
117 28 227 150 541 606 1082 1138 1669 1641 229 196 594 471 845 636 105 69
199 132 210 139 11 7 22 13 24 13 3 1 -103 -108 -235 -241z m928 -3310 c-158
-19 -228 -67 -338 -226 -248 -359 -579 -686 -939 -928 -184 -124 -351 -213
-570 -306 -90 -39 -207 -79 -212 -74 -3 2 6 7 19 11 74 23 271 106 388 165
524 261 994 672 1308 1140 53 80 129 158 180 184 49 25 132 45 187 44 45 -1
42 -2 -23 -10z m121 -5 c-7 -2 -19 -2 -25 0 -7 3 -2 5 12 5 14 0 19 -2 13 -5z
m47 -13 c8 -5 11 -10 5 -10 -5 0 -17 5 -25 10 -8 5 -10 10 -5 10 6 0 17 -5 25
-10z m85 -49 c51 -39 103 -106 91 -118 -3 -3 -8 2 -12 11 -4 10 -13 15 -24 11
-19 -6 -37 25 -26 44 6 9 -40 53 -80 78 -10 6 -15 12 -10 12 5 1 33 -17 61
-38z m134 -205 c6 -25 11 -55 10 -68 -1 -21 -1 -21 -11 5 -5 15 -13 27 -17 27
-4 0 -7 20 -7 44 1 54 10 51 25 -8z m-1779 -986 c0 -5 -4 -10 -10 -10 -5 0
-10 5 -10 10 0 6 5 10 10 10 6 0 10 -4 10 -10z m2 -42 c-12 -12 -35 -1 -27 12
3 5 13 6 21 3 10 -4 12 -9 6 -15z m-102 -273 c10 -12 10 -15 -4 -15 -9 0 -16
7 -16 15 0 8 2 15 4 15 2 0 9 -7 16 -15z m-488 -37 c-6 -6 -15 -8 -19 -4 -4 4
-1 11 7 16 8 5 17 7 19 4 3 -2 -1 -10 -7 -16z m498 -8 c0 -12 56 -14 63 -2 2
4 3 2 1 -4 -1 -5 11 -19 27 -30 16 -10 29 -24 29 -31 0 -6 6 -14 13 -16 6 -3
3 -6 -8 -6 -26 -1 -45 17 -38 35 3 8 1 14 -5 14 -5 0 -13 -7 -16 -16 -8 -22
-8 -26 4 -19 6 3 13 -2 17 -12 3 -10 11 -25 17 -33 9 -12 5 -21 -21 -46 -24
-24 -33 -28 -37 -17 -8 20 3 36 20 29 22 -8 28 20 10 46 -9 12 -16 17 -16 10
0 -7 -4 -11 -9 -7 -6 3 -8 -5 -5 -19 4 -26 -9 -42 -27 -30 -8 4 -7 9 2 15 11
7 9 9 -6 9 -17 0 -20 -6 -20 -37 1 -21 5 -45 10 -53 7 -12 6 -13 -6 -4 -21 18
-99 22 -99 7 0 -9 9 -12 28 -9 24 5 25 4 10 -8 -10 -7 -15 -16 -11 -19 3 -4
-1 -7 -10 -7 -9 0 -17 5 -17 10 0 6 -9 10 -20 10 -11 0 -20 4 -20 9 0 5 -3 17
-6 26 -4 9 -3 15 2 14 26 -5 44 3 44 19 0 12 -7 18 -22 17 -13 0 -24 5 -25 10
-2 6 18 10 45 11 l47 1 -1 37 c-1 26 2 34 9 27 17 -17 24 -13 36 21 8 22 8 34
1 36 -13 5 -13 22 0 22 6 0 10 -4 10 -10z m-663 -40 c-1 -22 -17 -28 -17 -7 0
12 9 27 16 27 2 0 2 -9 1 -20z m182 -1 c10 -18 15 -19 22 -8 7 11 9 11 9 -3 0
-26 -18 -31 -32 -8 -7 11 -18 20 -25 20 -7 0 -13 5 -13 10 0 18 25 11 39 -11z
m358 -11 c-3 -8 -6 -5 -6 6 -1 11 2 17 5 13 3 -3 4 -12 1 -19z m-390 -34 c-3
-3 -12 -4 -19 -1 -8 3 -5 6 6 6 11 1 17 -2 13 -5z m93 -101 c0 -54 -1 -56 -17
-40 -14 14 -15 22 -7 46 9 23 9 28 -4 27 -8 0 -17 5 -19 12 -3 7 5 12 21 12
25 0 26 -2 26 -57z m-5 -123 c-10 -11 -23 -20 -28 -20 -6 0 -2 9 8 20 10 11
23 20 28 20 6 0 2 -9 -8 -20z m-185 -100 c0 -5 -4 -10 -10 -10 -5 0 -10 5 -10
10 0 6 5 10 10 10 6 0 10 -4 10 -10z m-370 -100 c0 -5 -5 -10 -11 -10 -5 0 -7
5 -4 10 3 6 8 10 11 10 2 0 4 -4 4 -10z m80 -9 c0 -6 -9 -9 -19 -8 -11 0 -17
5 -15 9 7 11 34 10 34 -1z m-205 -71 c3 -5 1 -10 -4 -10 -6 0 -11 5 -11 10 0
6 2 10 4 10 3 0 8 -4 11 -10z m252 -43 c0 -17 -18 -32 -40 -34 -17 -1 -16 1 4
23 25 27 36 30 36 11z m127 -22 c3 -8 15 -15 26 -15 12 0 18 -4 15 -10 -3 -5
2 -10 11 -10 24 0 12 -10 -20 -16 -20 -3 -24 -1 -20 11 4 10 0 15 -13 15 -12
0 -19 8 -20 20 -2 23 12 27 21 5z m-184 -84 c0 -10 -24 -21 -43 -21 -7 0 -3 7
7 15 22 17 36 19 36 6z m-109 -11 c5 0 9 -4 9 -8 0 -5 -13 -7 -30 -4 -16 2
-27 9 -24 14 3 5 13 7 21 4 8 -3 19 -6 24 -6z"/>
<path d="M6960 2964 c-69 -12 -161 -26 -205 -30 -75 -8 -77 -9 -35 -14 25 -3
55 -2 66 1 12 4 26 3 33 -4 8 -8 11 -8 11 2 0 8 11 12 28 10 15 -1 39 1 55 6
17 4 33 3 42 -5 17 -14 36 -5 28 15 -3 11 2 15 17 15 16 0 20 -4 16 -16 -8
-22 4 -40 15 -23 7 11 12 12 29 1 11 -7 20 -8 20 -3 0 6 -4 13 -10 16 -20 13
-9 35 23 44 54 16 -2 10 -133 -15z"/>
<path d="M5688 2973 c7 -3 16 -2 19 1 4 3 -2 6 -13 5 -11 0 -14 -3 -6 -6z"/>
<path d="M7480 2940 c0 -5 5 -10 10 -10 6 0 10 5 10 10 0 6 -4 10 -10 10 -5 0
-10 -4 -10 -10z"/>
<path d="M5918 2933 c6 -2 18 -2 25 0 6 3 1 5 -13 5 -14 0 -19 -2 -12 -5z"/>
<path d="M6008 2923 c12 -2 30 -2 40 0 9 3 -1 5 -23 4 -22 0 -30 -2 -17 -4z"/>
<path d="M7105 2919 c-4 -5 5 -9 19 -9 14 0 26 4 26 8 0 11 -39 12 -45 1z"/>
<path d="M6123 2913 c15 -2 37 -2 50 0 12 2 0 4 -28 4 -27 0 -38 -2 -22 -4z"/>
<path d="M6553 2913 c15 -2 39 -2 55 0 15 2 2 4 -28 4 -30 0 -43 -2 -27 -4z"/>
<path d="M6348 2903 c18 -2 45 -2 60 0 15 2 0 4 -33 4 -33 0 -45 -2 -27 -4z"/>
<path d="M7280 2790 c0 -13 6 -20 18 -19 9 0 12 3 5 5 -7 3 -9 12 -6 20 3 8 0
14 -6 14 -6 0 -11 -9 -11 -20z"/>
<path d="M7490 2781 c0 -5 -9 -13 -20 -16 -24 -8 -25 -18 -3 -41 16 -15 17
-15 24 2 3 11 4 26 1 34 -5 13 -3 13 11 1 25 -20 31 -8 7 12 -11 9 -20 13 -20
8z"/>
<path d="M7319 2721 c7 -5 10 -14 7 -20 -4 -6 0 -11 9 -11 13 0 14 4 5 20 -6
11 -16 20 -23 20 -8 0 -8 -3 2 -9z"/>
<path d="M7390 2685 c0 -8 5 -15 10 -15 6 0 10 7 10 15 0 8 -4 15 -10 15 -5 0
-10 -7 -10 -15z"/>
<path d="M7163 2605 c0 -8 6 -15 13 -15 6 0 14 7 18 15 3 10 -1 15 -13 15 -10
0 -18 -7 -18 -15z"/>
<path d="M6921 2464 c0 -11 3 -14 6 -6 3 7 2 16 -1 19 -3 4 -6 -2 -5 -13z"/>
<path d="M7570 2390 c0 -36 15 -38 80 -9 38 16 40 18 13 13 -18 -3 -38 -2 -45
3 -9 5 1 10 27 14 37 6 36 6 -17 8 l-58 1 0 -30z"/>
<path d="M8080 2969 c0 -15 7 -29 15 -33 18 -7 18 2 0 34 l-14 25 -1 -26z"/>
<path d="M8043 2933 c-17 -6 -16 -23 1 -23 8 0 16 7 20 15 6 15 1 17 -21 8z"/>
</g>
</svg>
